<svg width="41" height="41" viewBox="0 0 41 41" fill="none" xmlns="http://www.w3.org/2000/svg">
<mask id="path-1-inside-1_3_671" fill="white">
<path d="M20.3474 21.8942L27.4224 28.9692C27.5345 29.1 27.6724 29.2063 27.8274 29.2813C27.9825 29.3563 28.1514 29.3985 28.3236 29.4052C28.4957 29.4118 28.6674 29.3828 28.8278 29.32C28.9882 29.2571 29.1339 29.1618 29.2557 29.04C29.3775 28.9182 29.4729 28.7725 29.5357 28.6121C29.5985 28.4517 29.6275 28.28 29.6209 28.1078C29.6142 27.9357 29.5721 27.7668 29.4971 27.6117C29.422 27.4566 29.3157 27.3187 29.1849 27.2067L22.1099 20.1317L29.1849 13.0567C29.3897 12.8175 29.4967 12.5099 29.4845 12.1953C29.4724 11.8807 29.342 11.5823 29.1194 11.3597C28.8967 11.1371 28.5983 11.0067 28.2837 10.9945C27.9691 10.9824 27.6615 11.0894 27.4224 11.2942L20.3474 18.3692L13.2724 11.2942C13.0382 11.0613 12.7214 10.9307 12.3911 10.9307C12.0609 10.9307 11.7441 11.0613 11.5099 11.2942C11.2771 11.5284 11.1464 11.8452 11.1464 12.1754C11.1464 12.5056 11.2771 12.8225 11.5099 13.0567L18.5849 20.1317L11.5099 27.2067C11.2771 27.4409 11.1464 27.7577 11.1464 28.0879C11.1464 28.4181 11.2771 28.735 11.5099 28.9692C11.7441 29.202 12.0609 29.3326 12.3911 29.3326C12.7214 29.3326 13.0382 29.202 13.2724 28.9692L20.3474 21.8942Z"/>
</mask>
<path d="M20.3474 21.8942L27.4224 28.9692C27.5345 29.1 27.6724 29.2063 27.8274 29.2813C27.9825 29.3563 28.1514 29.3985 28.3236 29.4052C28.4957 29.4118 28.6674 29.3828 28.8278 29.32C28.9882 29.2571 29.1339 29.1618 29.2557 29.04C29.3775 28.9182 29.4729 28.7725 29.5357 28.6121C29.5985 28.4517 29.6275 28.28 29.6209 28.1078C29.6142 27.9357 29.5721 27.7668 29.4971 27.6117C29.422 27.4566 29.3157 27.3187 29.1849 27.2067L22.1099 20.1317L29.1849 13.0567C29.3897 12.8175 29.4967 12.5099 29.4845 12.1953C29.4724 11.8807 29.342 11.5823 29.1194 11.3597C28.8967 11.1371 28.5983 11.0067 28.2837 10.9945C27.9691 10.9824 27.6615 11.0894 27.4224 11.2942L20.3474 18.3692L13.2724 11.2942C13.0382 11.0613 12.7214 10.9307 12.3911 10.9307C12.0609 10.9307 11.7441 11.0613 11.5099 11.2942C11.2771 11.5284 11.1464 11.8452 11.1464 12.1754C11.1464 12.5056 11.2771 12.8225 11.5099 13.0567L18.5849 20.1317L11.5099 27.2067C11.2771 27.4409 11.1464 27.7577 11.1464 28.0879C11.1464 28.4181 11.2771 28.735 11.5099 28.9692C11.7441 29.202 12.0609 29.3326 12.3911 29.3326C12.7214 29.3326 13.0382 29.202 13.2724 28.9692L20.3474 21.8942Z" fill="black"/>
<path d="M20.3474 21.8942L22.1152 20.1264L20.3474 18.3586L18.5796 20.1264L20.3474 21.8942ZM27.4224 28.9692L29.3213 27.343L29.2584 27.2697L29.1902 27.2014L27.4224 28.9692ZM29.1849 27.2067L27.4171 28.9744L27.4854 29.0427L27.5588 29.1055L29.1849 27.2067ZM22.1099 20.1317L20.3421 18.3639L18.5744 20.1317L20.3421 21.8994L22.1099 20.1317ZM29.1849 13.0567L30.9527 14.8244L31.0209 14.7561L31.0838 14.6828L29.1849 13.0567ZM27.4224 11.2942L25.7963 9.3953L25.7229 9.45811L25.6546 9.52639L27.4224 11.2942ZM20.3474 18.3692L18.5796 20.1369L20.3474 21.9047L22.1152 20.1369L20.3474 18.3692ZM13.2724 11.2942L15.0402 9.52638L15.0349 9.52114L13.2724 11.2942ZM11.5099 11.2942L9.7474 9.52114L9.74212 9.52638L9.73688 9.53166L11.5099 11.2942ZM11.5099 13.0567L9.73687 14.8192L9.74213 14.8244L11.5099 13.0567ZM18.5849 20.1317L20.3527 21.8994L22.1204 20.1317L20.3527 18.3639L18.5849 20.1317ZM11.5099 27.2067L9.74212 25.4389L9.73688 25.4442L11.5099 27.2067ZM11.5099 28.9692L9.73688 30.7317L9.74212 30.7369L9.7474 30.7422L11.5099 28.9692ZM13.2724 28.9692L15.0349 30.7422L15.0402 30.7369L13.2724 28.9692ZM18.5796 23.6619L25.6546 30.7369L29.1902 27.2014L22.1152 20.1264L18.5796 23.6619ZM25.5235 30.5953C25.8597 30.9879 26.2734 31.3067 26.7386 31.5318L28.9162 27.0309C29.0713 27.1059 29.2092 27.2122 29.3213 27.343L25.5235 30.5953ZM26.7386 31.5318C27.2039 31.7569 27.7106 31.8833 28.2271 31.9033L28.4201 26.907C28.5922 26.9137 28.7611 26.9558 28.9162 27.0309L26.7386 31.5318ZM28.2271 31.9033C28.7435 31.9232 29.2585 31.8362 29.7397 31.6477L27.9159 26.9922C28.0763 26.9294 28.2479 26.9004 28.4201 26.907L28.2271 31.9033ZM29.7397 31.6477C30.221 31.4592 30.658 31.1732 31.0235 30.8077L27.4879 27.2722C27.6098 27.1504 27.7554 27.0551 27.9159 26.9922L29.7397 31.6477ZM31.0235 30.8077C31.3889 30.4423 31.6749 30.0052 31.8634 29.524L27.208 27.7001C27.2708 27.5397 27.3661 27.394 27.4879 27.2722L31.0235 30.8077ZM31.8634 29.524C32.052 29.0428 32.139 28.5278 32.119 28.0113L27.1228 28.2043C27.1161 28.0322 27.1451 27.8605 27.208 27.7001L31.8634 29.524ZM32.119 28.0113C32.0991 27.4949 31.9726 26.9882 31.7475 26.5229L27.2466 28.7005C27.1716 28.5454 27.1294 28.3765 27.1228 28.2043L32.119 28.0113ZM31.7475 26.5229C31.5224 26.0577 31.2036 25.644 30.811 25.3078L27.5588 29.1055C27.4279 28.9935 27.3216 28.8556 27.2466 28.7005L31.7475 26.5229ZM30.9527 25.4389L23.8777 18.3639L20.3421 21.8994L27.4171 28.9744L30.9527 25.4389ZM23.8777 21.8994L30.9527 14.8244L27.4171 11.2889L20.3421 18.3639L23.8777 21.8994ZM31.0838 14.6828C31.6981 13.9654 32.0191 13.0426 31.9827 12.0988L26.9864 12.2918C26.9742 11.9772 27.0813 11.6696 27.286 11.4305L31.0838 14.6828ZM31.9827 12.0988C31.9462 11.1551 31.555 10.2598 30.8871 9.59194L27.3516 13.1275C27.129 12.9049 26.9986 12.6064 26.9864 12.2918L31.9827 12.0988ZM30.8871 9.59194C30.2193 8.92408 29.324 8.53283 28.3802 8.49638L28.1872 13.4927C27.8726 13.4805 27.5742 13.3501 27.3516 13.1275L30.8871 9.59194ZM28.3802 8.49638C27.4364 8.45992 26.5136 8.78095 25.7963 9.3953L29.0485 13.193C28.8094 13.3978 28.5018 13.5048 28.1872 13.4927L28.3802 8.49638ZM25.6546 9.52639L18.5796 16.6014L22.1152 20.1369L29.1902 13.0619L25.6546 9.52639ZM22.1152 16.6014L15.0402 9.52639L11.5046 13.0619L18.5796 20.1369L22.1152 16.6014ZM15.0349 9.52114C14.3323 8.8227 13.3819 8.43066 12.3911 8.43066V13.4307C12.0609 13.4307 11.7441 13.3 11.5099 13.0672L15.0349 9.52114ZM12.3911 8.43066C11.4004 8.43066 10.45 8.8227 9.7474 9.52114L13.2724 13.0672C13.0382 13.3 12.7214 13.4307 12.3911 13.4307V8.43066ZM9.73688 9.53166C9.03844 10.2343 8.64641 11.1847 8.64641 12.1754H13.6464C13.6464 12.5056 13.5157 12.8225 13.2829 13.0567L9.73688 9.53166ZM8.64641 12.1754C8.64641 13.1661 9.03844 14.1165 9.73688 14.8192L13.2829 11.2942C13.5157 11.5284 13.6464 11.8452 13.6464 12.1754H8.64641ZM9.74213 14.8244L16.8171 21.8994L20.3527 18.3639L13.2777 11.2889L9.74213 14.8244ZM16.8171 18.3639L9.74213 25.4389L13.2777 28.9744L20.3527 21.8994L16.8171 18.3639ZM9.73688 25.4442C9.03844 26.1468 8.64641 27.0972 8.64641 28.0879H13.6464C13.6464 28.4181 13.5157 28.735 13.2829 28.9692L9.73688 25.4442ZM8.64641 28.0879C8.64641 29.0786 9.03844 30.029 9.73688 30.7317L13.2829 27.2067C13.5157 27.4409 13.6464 27.7577 13.6464 28.0879H8.64641ZM9.7474 30.7422C10.45 31.4406 11.4005 31.8326 12.3911 31.8326V26.8326C12.7214 26.8326 13.0382 26.9633 13.2724 27.1961L9.7474 30.7422ZM12.3911 31.8326C13.3818 31.8326 14.3323 31.4406 15.0349 30.7422L11.5099 27.1961C11.7441 26.9633 12.0609 26.8326 12.3911 26.8326V31.8326ZM15.0402 30.7369L22.1152 23.6619L18.5796 20.1264L11.5046 27.2014L15.0402 30.7369Z" fill="#FCFCFC" mask="url(#path-1-inside-1_3_671)"/>
</svg>
