<svg width="33" height="32" viewBox="0 0 33 32" fill="none" xmlns="http://www.w3.org/2000/svg">
<path d="M23.1975 14H9.19751C7.87143 14 6.59966 14.5268 5.66198 15.4645C4.72429 16.4021 4.19751 17.6739 4.19751 19V25C4.19751 26.3261 4.72429 27.5979 5.66198 28.5355C6.59966 29.4732 7.87143 30 9.19751 30H23.1975C24.5236 30 25.7954 29.4732 26.733 28.5355C27.6707 27.5979 28.1975 26.3261 28.1975 25V19C28.1975 17.6739 27.6707 16.4021 26.733 15.4645C25.7954 14.5268 24.5236 14 23.1975 14ZM16.1975 26C15.4064 26 14.633 25.7654 13.9752 25.3259C13.3174 24.8864 12.8047 24.2616 12.502 23.5307C12.1992 22.7998 12.12 21.9956 12.2744 21.2196C12.4287 20.4437 12.8097 19.731 13.3691 19.1716C13.9285 18.6122 14.6412 18.2312 15.4171 18.0769C16.1931 17.9225 16.9973 18.0017 17.7282 18.3045C18.4591 18.6072 19.0839 19.1199 19.5234 19.7777C19.9629 20.4355 20.1975 21.2089 20.1975 22C20.1975 23.0609 19.7761 24.0783 19.0259 24.8284C18.2758 25.5786 17.2584 26 16.1975 26Z" fill="#FD3C4A"/>
<path d="M16.1975 24C17.3021 24 18.1975 23.1046 18.1975 22C18.1975 20.8954 17.3021 20 16.1975 20C15.0929 20 14.1975 20.8954 14.1975 22C14.1975 23.1046 15.0929 24 16.1975 24Z" fill="#FD3C4A"/>
<path d="M16.9075 2.28994C16.8145 2.19621 16.7039 2.12182 16.5821 2.07105C16.4602 2.02028 16.3295 1.99414 16.1975 1.99414C16.0655 1.99414 15.9348 2.02028 15.8129 2.07105C15.691 2.12182 15.5804 2.19621 15.4875 2.28994L11.2475 6.53994C11.0539 6.72692 10.9425 6.98315 10.9378 7.25226C10.9331 7.52138 11.0355 7.78133 11.2225 7.97494C11.4095 8.16855 11.6657 8.27995 11.9348 8.28464C12.2039 8.28933 12.4639 8.18692 12.6575 7.99994L15.1975 5.40994V10.9999C15.1975 11.2652 15.3028 11.5195 15.4904 11.707C15.6779 11.8946 15.9323 11.9999 16.1975 11.9999C16.4627 11.9999 16.717 11.8946 16.9046 11.707C17.0921 11.5195 17.1975 11.2652 17.1975 10.9999V5.40994L19.7375 7.99994C19.9237 8.18468 20.1751 8.28883 20.4375 8.28994C20.5774 8.29755 20.7174 8.27567 20.8483 8.22571C20.9792 8.17575 21.0982 8.09883 21.1975 7.99994C21.3837 7.81258 21.4883 7.55912 21.4883 7.29494C21.4883 7.03075 21.3837 6.7773 21.1975 6.58994L16.9075 2.28994Z" fill="#FD3C4A"/>
</svg>
